<svg width="30" height="30" viewBox="0 0 30 30" fill="none" xmlns="http://www.w3.org/2000/svg">
<path d="M23 8.32715H24.4M6.89999 1.32715H23.7C26.7928 1.32715 29.3 3.83435 29.3 6.92715V23.7271C29.3 26.8199 26.7928 29.3271 23.7 29.3271H6.89999C3.80719 29.3271 1.29999 26.8199 1.29999 23.7271V6.92715C1.29999 3.83435 3.80719 1.32715 6.89999 1.32715ZM15.3 20.9271C12.2072 20.9271 9.69999 18.4199 9.69999 15.3271C9.69999 12.2344 12.2072 9.72715 15.3 9.72715C18.3928 9.72715 20.9 12.2344 20.9 15.3271C20.9 18.4199 18.3928 20.9271 15.3 20.9271Z" stroke="#C0C0C0"/>
</svg>
